Coordinates
version=1
nRows=7
nColumns=63
inDegrees=yes

Units are S.I. units (second, meters, Newtons, ...)
If the header above contains a line with 'inDegrees', this indicates whether rotational values are in degrees (yes) or radians (no).

endheader
time	pelvis_tilt	pelvis_list	pelvis_rotation	pelvis_tx	pelvis_ty	pelvis_tz	hip_flexion_r	hip_adduction_r	hip_rotation_r	knee_angle_r	knee_angle_r_beta	ankle_angle_r	subtalar_angle_r	mtp_angle_r	hip_flexion_l	hip_adduction_l	hip_rotation_l	knee_angle_l	knee_angle_l_beta	ankle_angle_l	subtalar_angle_l	mtp_angle_l	L5_S1_Flex_Ext	L5_S1_Lat_Bending	L5_S1_axial_rotation	L4_L5_Flex_Ext	L4_L5_Lat_Bending	L4_L5_axial_rotation	L3_L4_Flex_Ext	L3_L4_Lat_Bending	L3_L4_axial_rotation	L2_L3_Flex_Ext	L2_L3_Lat_Bending	L2_L3_axial_rotation	L1_L2_Flex_Ext	L1_L2_Lat_Bending	L1_L2_axial_rotation	L1_T12_Flex_Ext	L1_T12_Lat_Bending	L1_T12_axial_rotation	Abs_r3	Abs_r2	Abs_r1	Abs_t1	Abs_t2	neck_flexion	neck_bending	neck_rotation	arm_flex_r	arm_add_r	arm_rot_r	elbow_flex_r	pro_sup_r	wrist_flex_r	wrist_dev_r	arm_flex_l	arm_add_l	arm_rot_l	elbow_flex_l	pro_sup_l	wrist_flex_l	wrist_dev_l
      1.03389831	     -4.01206926	     -2.79964834	     85.14462638	      0.10337033	      1.04642201	      0.33136592	      5.09265679	     -4.95036785	    -18.40185420	     16.59685075	      0.28966969	     33.96776598	     18.63912549	      0.00000000	      2.75203192	      3.82480956	      4.67159403	      8.03955382	      0.14031668	     25.34127703	     -7.23514037	      0.00000000	      0.02541195	     -0.22087318	      0.53317051	      0.04719253	     -0.29376133	      0.56649367	      0.04174929	     -0.53703105	      0.56649367	      0.02904331	     -0.53703105	      0.46652420	      0.02359753	     -0.45040459	      0.43320104	      0.01452039	     -0.34213256	      0.39987789	      0.18151500	     -2.49856161	      2.96533445	      0.00000000	      0.00000000	     -3.42126246	      2.63614680	    -10.46313235	    -91.95165784	    -81.11623007	    -58.79447527	     10.72145646	      9.42253927	     -7.39120866	      5.45042358	     58.29272151	    -95.67509237	    103.46799491	      5.92401548	     54.04884579	     -7.95684735	     -3.54684829
      1.05084746	     -3.88775304	     -2.85619319	     85.36794713	      0.10352747	      1.04649365	      0.33199128	      5.18620705	     -4.75102597	    -18.26188126	     16.45645154	      0.28721926	     34.27654959	     18.64894293	      0.00000000	      3.11420354	      3.53222301	      2.78426647	      8.71055574	      0.15202788	     26.21795162	     -4.52869786	      0.00000000	      0.02668917	     -0.20887203	      0.48883031	      0.04956446	     -0.27779980	      0.51938220	      0.04384764	     -0.50785145	      0.51938220	      0.03050306	     -0.50785145	      0.42772652	      0.02478357	     -0.42593184	      0.39717463	      0.01525019	     -0.32354277	      0.36662273	      0.19063809	     -2.36280216	      2.71872752	      0.00000000	      0.00000000	     -3.51256595	      2.59248957	    -10.31255939	    -90.21075586	    -81.04592499	    -58.99661147	     10.41786367	     12.21829420	     -7.12593408	      5.49889216	     60.00230763	    -95.61849191	    103.94887922	      5.75253737	     55.38557879	     -7.71755942	     -4.12766284
      1.06779661	     -3.66019173	     -2.86419905	     85.38379039	      0.10324268	      1.04670092	      0.33210842	      5.21373834	     -4.45642876	    -17.88017054	     16.21727338	      0.28304482	     34.63254454	     18.65006749	      0.00000000	      2.95255656	      3.48017607	      5.14377466	      8.43199538	      0.14716608	     25.38604495	     -8.05755127	      0.00000000	      0.02529258	     -0.16885509	      0.49011723	      0.04697085	     -0.22457727	      0.52074956	      0.04155318	     -0.41055426	      0.52074956	      0.02890689	     -0.41055426	      0.42885258	      0.02348669	     -0.34432930	      0.39822025	      0.01445218	     -0.26155653	      0.36758792	      0.18066238	     -1.91012253	      2.72588501	      0.00000000	      0.00000000	     -3.61686047	      2.21160217	     -9.96759802	    -92.49260365	    -80.86775073	    -60.52736519	     10.53101844	     12.47509901	     -6.75719217	      5.58690966	     64.78637755	    -95.30282473	    105.34290353	      5.53030416	     57.92067700	     -7.43175199	     -4.62776184
      1.08474576	     -3.59559644	     -2.88374473	     85.47050170	      0.10331204	      1.04694278	      0.33252301	      5.33523290	     -4.34261953	    -17.70433985	     16.09746525	      0.28095377	     35.11679448	     18.72630781	      0.00000000	      3.00308000	      3.39621064	      5.11447906	      8.47497978	      0.14791630	     25.32074021	     -8.09025019	      0.00000000	      0.01731065	     -0.16182347	      0.47291003	      0.03214762	     -0.21522522	      0.50246691	      0.02843967	     -0.39345760	      0.50246691	      0.01978435	     -0.39345760	      0.41379628	      0.01607467	     -0.32999043	      0.38423940	      0.00989131	     -0.25066456	      0.35468252	      0.12364827	     -1.83057951	      2.63018371	      0.00000000	      0.00000000	     -3.61875185	      2.19544922	     -9.93790267	    -92.47876377	    -80.77247472	    -60.47299282	     10.61311636	     12.48575568	     -6.71325223	      5.63645987	     64.76068886	    -95.19097888	    105.36665940	      5.58937054	     57.93704792	     -7.39509595	     -4.66294109
      1.10169492	     -3.44917165	     -3.05107309	     85.60192431	      0.10336232	      1.04694299	      0.33295851	      5.49648251	     -4.08153652	    -17.47171452	     15.73894786	      0.27469646	     35.46767057	     18.67680023	      0.00000000	      3.32961305	      3.21884946	      5.24546453	      8.76129049	      0.15291337	     25.37035484	     -8.22897021	      0.00000000	      0.03448577	     -0.14546566	      0.44916881	      0.06404353	     -0.19346933	      0.47724186	      0.05665668	     -0.35368520	      0.47724186	      0.03941379	     -0.35368520	      0.39302271	      0.03202349	     -0.29663357	      0.36494966	      0.01970517	     -0.22532631	      0.33687661	      0.24632843	     -1.64553663	      2.49814219	      0.00000000	      0.00000000	     -3.55750922	      2.16341423	     -9.85528700	    -92.49490172	    -80.76226070	    -60.34280824	     10.54114397	     12.51806959	     -6.46790813	      5.83417527	     64.46285864	    -95.01680164	    105.50462470	      5.51357963	     58.06004710	     -7.31440431	     -4.84646929
      1.11864407	     -3.46871308	     -3.13034963	     85.84199022	      0.10341354	      1.04698993	      0.33333454	      5.60081165	     -4.05574252	    -17.54888273	     15.56755239	      0.27170505	     35.83632554	     18.67386479	      0.00000000	      3.43800048	      3.27127154	      6.12039127	      8.74707859	      0.15266532	     24.90991383	     -9.31846410	      0.00000000	      0.03814959	     -0.15689765	      0.39640076	      0.07084760	     -0.20867387	      0.42117580	      0.06267595	     -0.38148094	      0.42117580	      0.04360116	     -0.38148094	      0.34685066	      0.03542571	     -0.31994568	      0.32207561	      0.02179867	     -0.24303446	      0.29730057	      0.27249868	     -1.77485757	      2.20466208	      0.00000000	      0.00000000	     -3.55131792	      2.34756829	     -9.99686038	    -90.52144585	    -80.85404204	    -59.80476749	     10.31039464	     13.70911699	     -6.21339309	      6.08468815	     58.92183602	    -95.06024215	    104.82973120	      5.62475017	     55.87172588	     -7.23017659	     -4.74808721
      1.13559322	     -3.44742532	     -3.22865029	     86.12556167	      0.10321908	      1.04687802	      0.33388514	      5.69355521	     -4.01265371	    -17.80558175	     15.43618097	      0.26941218	     36.02000402	     18.69678624	      0.00000000	      3.69624362	      3.21502898	      5.96258405	      8.98000255	      0.15673061	     24.94404305	     -8.80090462	      0.00000000	      0.04125130	     -0.15767783	      0.33811834	      0.07660778	     -0.20971151	      0.35925074	      0.06777175	     -0.38337788	      0.35925074	      0.04714611	     -0.38337788	      0.29585355	      0.03830595	     -0.32153663	      0.27472115	      0.02357099	     -0.24424296	      0.25358875	      0.29465388	     -1.78368316	      1.88051277	      0.00000000	      0.00000000	     -3.43720365	      2.37544919	     -9.97257649	    -89.75647347	    -80.93441085	    -59.75836257	     10.24522317	     13.94275813	     -6.19582258	      6.31425789	     55.05921979	    -95.03638848	    104.30889426	      5.69775530	     54.73150414	     -7.41748401	     -4.72535081
